<svg width="24" height="25" viewBox="0 0 24 25" fill="none" xmlns="http://www.w3.org/2000/svg">
<path d="M15.2417 12.8125C16.9207 11.8555 18.0887 10.205 18.4305 8.30523C18.7725 6.40546 18.2534 4.45228 17.0129 2.97181C15.7726 1.49135 13.9385 0.635742 12.005 0.635742C10.0715 0.635742 8.2374 1.49135 6.99703 2.97181C5.7567 4.45247 5.23752 6.40565 5.57939 8.30523C5.92139 10.205 7.08918 11.8555 8.76844 12.8125C3.71831 14.0918 0 18.2784 0 23.2359V23.6422C0.0223483 23.9788 0.30555 24.2385 0.643354 24.2321H23.3696C23.7023 24.2314 23.9778 23.9737 24 23.6422V23.2359C24.013 18.2788 20.2943 14.0919 15.2418 12.8125H15.2417ZM6.74098 7.15508C6.7375 5.76183 7.28834 4.42419 8.27239 3.4362C9.25643 2.44821 10.5931 1.89062 11.989 1.88589C13.3847 1.88132 14.7251 2.43009 15.7157 3.41153C16.7062 4.39315 17.266 5.72714 17.2717 7.12039C17.2776 8.51365 16.7289 9.85217 15.7465 10.8419C14.7643 11.8315 13.4283 12.3913 12.0327 12.3982H11.9801H11.9803C10.591 12.39 9.2613 11.8344 8.28016 10.8526C7.29902 9.87081 6.74599 8.54197 6.74106 7.15513L6.74098 7.15508ZM1.26832 22.9709C1.42586 17.8327 6.16089 13.6935 11.9646 13.6724H12.0487C17.8524 13.6934 22.5874 17.8302 22.745 22.9709H1.26832Z" fill="black"/>
</svg>
