<svg width="11" height="11" viewBox="0 0 11 11" fill="none" xmlns="http://www.w3.org/2000/svg">
<path d="M11 10.3889L10.3889 11L7.22259 7.8707C6.46061 8.48988 5.48895 8.86113 4.43048 8.86113C1.98365 8.86113 0 6.8775 0 4.43046C0 1.98364 1.98365 0 4.43048 0C6.87753 0 8.86118 1.98364 8.86118 4.43046C8.86118 5.48887 8.48989 6.46058 7.87075 7.22255L11 10.3889ZM4.43059 7.94447C6.3714 7.94447 7.94457 6.37132 7.94457 4.43051C7.94457 2.48993 6.3714 0.916766 4.43059 0.916766C2.48999 0.916766 0.916826 2.48993 0.916826 4.43051C0.916826 6.37132 2.48999 7.94447 4.43059 7.94447Z" fill="black"/>
</svg>
