<svg width="150" height="17" viewBox="0 0 150 17" fill="none" xmlns="http://www.w3.org/2000/svg">
<path d="M0.795679 0.1484H14.2045V2.1869H8.65523V17H6.32228V2.1869H0.795679V0.1484ZM16.6574 0.1484H18.9677V7.23785H27.6653V0.1484H29.9983V17H27.6653V9.1178H18.9677V17H16.6574V0.1484ZM33.4901 0.1484H45.4719V2.1869H35.8004V7.28315H44.5433V9.2084H35.8004V14.8935H45.7211V17H33.4901V0.1484ZM54.5917 0.1484H57.5815L61.0923 9.299C61.2584 9.7671 61.4396 10.3031 61.6359 10.9071C61.8473 11.5111 62.036 12.0849 62.2021 12.6285C62.3984 13.2627 62.5947 13.912 62.791 14.5764H62.8363C63.0477 13.912 63.2516 13.2627 63.4479 12.6285C63.614 12.0849 63.7952 11.5111 63.9915 10.9071C64.2029 10.3031 64.3916 9.7671 64.5577 9.299L68.0005 0.1484H71.0809V17H68.8612V6.8075C68.8612 6.43 68.8612 5.99965 68.8612 5.51645C68.8763 5.01815 68.899 4.5425 68.9292 4.0895C68.9443 3.5761 68.9669 3.04005 68.9971 2.48135H68.9518L68.5441 3.9083C68.4233 4.3009 68.295 4.7237 68.1591 5.1767C68.0232 5.6146 67.8948 5.99965 67.774 6.33185L63.6744 17H61.8624L57.7627 6.33185C57.6419 5.99965 57.5136 5.6146 57.3777 5.1767C57.2418 4.7237 57.1134 4.3009 56.9926 3.9083L56.5849 2.48135H56.5396C56.5547 3.04005 56.5774 3.5761 56.6076 4.0895C56.6227 4.5425 56.6378 5.01815 56.6529 5.51645C56.668 5.99965 56.6755 6.43 56.6755 6.8075V17H54.5917V0.1484ZM79.3903 0.1484H81.9724L88.1785 17H85.6417L83.9656 12.0849H77.3291L75.6077 17H73.2295L79.3903 0.1484ZM77.9633 10.2729H83.354L81.7459 5.56175C81.5949 5.15405 81.459 4.7388 81.3382 4.316C81.2174 3.8932 81.1117 3.50815 81.0211 3.16085C80.9154 2.76825 80.8172 2.37565 80.7266 1.98305H80.6587C80.553 2.37565 80.4473 2.7758 80.3416 3.1835C80.2359 3.5308 80.1226 3.91585 80.0018 4.33865C79.881 4.76145 79.7527 5.16915 79.6168 5.56175L77.9633 10.2729ZM90.3584 0.1484H98.2406C98.9956 0.1484 99.6826 0.26165 100.302 0.48815C100.921 0.69955 101.449 1.0091 101.887 1.4168C102.34 1.8245 102.688 2.31525 102.929 2.88905C103.171 3.46285 103.292 4.09705 103.292 4.79165C103.292 5.81845 103.057 6.69425 102.589 7.41905C102.121 8.12875 101.329 8.65725 100.211 9.00455V9.0725C100.679 9.2084 101.072 9.3896 101.389 9.6161C101.706 9.8426 101.963 10.1219 102.159 10.4542C102.355 10.7712 102.499 11.1563 102.589 11.6093C102.695 12.0623 102.771 12.5908 102.816 13.1948C102.861 13.8592 102.914 14.4179 102.974 14.8709C103.035 15.3088 103.095 15.6712 103.156 15.9581C103.216 16.2299 103.276 16.4413 103.337 16.5923C103.412 16.7282 103.495 16.8263 103.586 16.8867V17H101.117C101.027 16.9245 100.951 16.8112 100.891 16.6602C100.83 16.5092 100.777 16.2903 100.732 16.0034C100.687 15.7165 100.649 15.3541 100.619 14.9162C100.589 14.4632 100.551 13.8969 100.506 13.2174C100.43 12.0245 100.128 11.1865 99.5996 10.7033C99.0711 10.2201 98.2557 9.9785 97.1534 9.9785H92.6687V17H90.3584V0.1484ZM92.6687 8.1212H97.4931C98.6407 8.1212 99.4939 7.85695 100.053 7.32845C100.626 6.78485 100.913 6.0525 100.913 5.1314C100.913 4.1348 100.657 3.38735 100.143 2.88905C99.6449 2.39075 98.7993 2.1416 97.6064 2.1416H92.6687V8.1212ZM106.218 0.1484H108.528V5.3579C108.528 5.9317 108.521 6.4904 108.505 7.034C108.49 7.5776 108.468 8.05325 108.438 8.46095L116.569 0.125749H119.468L112.696 6.8981L120.012 17H117.316L111.088 8.393L108.528 10.9071V17H106.218V0.1484ZM121.745 0.1484H133.727V2.1869H124.056V7.28315H132.799V9.2084H124.056V14.8935H133.976V17H121.745V0.1484ZM135.789 0.1484H149.198V2.1869H143.648V17H141.315V2.1869H135.789V0.1484Z" fill="black"/>
</svg>
